<svg width="45" height="30" viewBox="0 0 45 30" fill="none" xmlns="http://www.w3.org/2000/svg">
<path fill-rule="evenodd" clip-rule="evenodd" d="M28.1477 10.7493C28.7701 9.74697 29.6648 8.93742 30.8318 8.32062C31.9988 7.70382 33.3343 7.39543 34.8385 7.39543C36.6279 7.39543 38.2487 7.84517 39.7009 8.74467C41.1532 9.64417 42.2942 10.9292 43.1241 12.5997C43.9799 14.2702 44.4078 16.2105 44.4078 18.4207C44.4078 20.6309 43.9799 22.5841 43.1241 24.2803C42.2942 25.9508 41.1532 27.2486 39.7009 28.1738C38.2487 29.0733 36.6279 29.5231 34.8385 29.5231C33.3084 29.5231 31.9728 29.2275 30.8318 28.6364C29.6907 28.0196 28.796 27.2101 28.1477 26.2078V29.2147H21.4958V0.687744H28.1477V10.7493ZM37.6392 18.4207C37.6392 16.7759 37.1724 15.4909 36.2389 14.5657C35.3312 13.6148 34.2031 13.1394 32.8546 13.1394C31.532 13.1394 30.4039 13.6148 29.4703 14.5657C28.5626 15.5166 28.1088 16.8144 28.1088 18.4592C28.1088 20.104 28.5626 21.4019 29.4703 22.3528C30.4039 23.3037 31.532 23.7791 32.8546 23.7791C34.1772 23.7791 35.3053 23.3037 36.2389 22.3528C37.1724 21.3762 37.6392 20.0655 37.6392 18.4207Z" fill="#1B1B1D"/>
<path d="M17.4228 21.4492V19.2608V0.687744H11.022V21.4492H17.4228Z" fill="#425FF0"/>
<path d="M6.94858 12.2219V11.0061V0.687744H0.547729V12.2219H6.94858Z" fill="#EE6873"/>
</svg>
